<svg width="272" height="325" viewBox="0 0 272 325" fill="none" xmlns="http://www.w3.org/2000/svg">
<path d="M88.8663 13.5839L68.8079 27.0408V54.2085V81.2493H34.404H0L0.507808 192.586C0.888663 303.542 1.01562 304.05 3.68161 309.128C5.20503 311.921 7.99797 315.729 10.0292 317.634C18.0272 325.378 12.4413 324.997 136.6 324.997H250.095L256.824 321.442C261.775 318.903 264.695 316.237 267.488 311.667L271.296 305.573L271.677 210.232C271.931 157.801 271.677 107.274 271.296 98.0069L270.408 81.2493H237.527H204.646L204.393 54.2085L204.012 27.2947L183.699 13.5839L163.514 2.14868e-05L136.092 0.126973H108.798L88.8663 13.5839ZM164.022 20.3123V26.6599H136.727H109.433V20.3123V13.9647H136.727H164.022V20.3123ZM95.4678 53.3198V81.2493H89.1202H82.7727V57.3823V33.6423L88.8663 29.5798C92.1671 27.4216 94.96 25.5174 95.2139 25.5174C95.3409 25.3904 95.4678 37.9586 95.4678 53.3198ZM185.35 30.7224L190.682 34.404V57.7631V81.2493H183.699H176.717V53.1929C176.717 31.2302 177.098 25.3904 178.367 26.1521C179.129 26.6599 182.303 28.6912 185.35 30.7224ZM164.022 60.9369V81.2493H136.727H109.433V60.9369V40.6246H136.727H164.022V60.9369ZM257.966 198.172C257.966 271.423 257.585 301.892 256.57 303.796C255.808 305.319 253.904 307.605 252.38 308.747C249.841 310.778 241.843 311.032 136.473 311.032H23.1052L19.0428 307.351L14.8534 303.669L14.4725 199.442L14.2186 95.214H136.092H257.966V198.172Z" fill="#51643A"/>
<path d="M138.124 172.02C127.714 190.555 119.081 205.662 118.954 205.662C118.7 205.662 114.13 198.172 108.798 189.031C103.339 180.018 98.5147 173.035 98.0069 173.543C97.4991 174.051 86.0734 193.094 72.7434 215.818L48.3687 257.078L135.585 257.458C183.572 257.585 223.055 257.458 223.435 257.205C223.943 256.57 159.832 141.551 157.801 139.393C157.42 138.885 148.534 153.612 138.124 172.02ZM179.764 205.535C191.443 226.101 200.711 243.113 200.457 243.367C200.203 243.621 180.526 243.621 156.786 243.494L113.622 243.113L135.331 204.647C147.137 183.572 157.293 166.688 157.801 167.196C158.309 167.83 168.211 184.969 179.764 205.535ZM104.862 209.217C108.036 214.676 110.702 219.627 110.702 220.008C110.702 220.515 107.782 226.101 104.228 232.322L97.753 243.748H85.1847C78.2024 243.748 72.6165 243.494 72.6165 243.24C72.6165 242.478 98.1338 199.315 98.6416 199.315C98.8955 199.315 101.688 203.758 104.862 209.217Z" fill="#51643A"/>
</svg>
