<svg width="325" height="325" viewBox="0 0 325 325" fill="none" xmlns="http://www.w3.org/2000/svg">
<path d="M66.1074 1.5235C64.9648 2.66608 64.584 13.9649 64.584 44.5606C64.584 80.8692 64.8379 86.2012 66.6152 87.7247C68.0117 88.8672 69.1543 88.9942 70.6777 87.9786C72.582 86.836 72.8359 82.5196 73.2168 48.3692L73.4707 10.1563H82.9922H92.5137V48.2422C92.5137 82.1387 92.7676 86.3282 94.5449 87.3438C97.5918 89.1212 101.02 87.7247 101.908 84.6778C103.305 79.5997 102.797 5.07819 101.4 2.41218C100.131 0.253972 98.6074 6.61973e-05 83.8809 6.61973e-05C72.9629 6.61973e-05 67.123 0.507879 66.1074 1.5235Z" fill="#51643A"/>
<path d="M109.398 32.5001C108.129 33.0079 107.748 39.7364 107.748 59.668C107.748 82.1387 108.002 86.2012 109.779 87.7247C111.176 88.8672 112.318 88.9942 113.842 87.9786C115.746 86.836 116.127 83.4083 116.635 63.9844L117.27 41.2598L126.537 40.879L135.678 40.4981V63.3497C135.678 84.4239 135.932 86.3282 138.09 87.4708C139.74 88.3594 141.01 88.3594 142.533 87.2169C144.438 85.8204 144.564 82.6465 144.311 59.0333L143.93 32.3731L127.426 32.1192C118.412 31.9922 110.16 32.2461 109.398 32.5001Z" fill="#51643A"/>
<path d="M184.808 41.7675C179.349 42.9101 174.525 46.084 170.717 51.289C168.304 54.4629 168.051 56.875 167.67 78.8379L167.289 102.832H96.449C15.5799 102.832 16.4685 102.705 7.70877 112.227C4.9158 115.273 1.86892 119.971 1.1072 122.764C0.0915788 126.064 -0.162327 147.773 0.0915789 195L0.472438 262.285L4.02713 267.617C9.10525 275.234 15.199 278.027 27.6404 278.027C38.4314 278.027 39.9549 277.266 38.6853 272.187C37.9236 269.395 37.2888 269.141 29.5447 269.141C14.3103 269.141 9.99392 264.824 9.99392 249.209V238.672H124.252H238.51L233.939 245.02C229.75 250.986 224.545 263.047 224.545 267.236C224.545 268.887 215.15 269.141 142.152 269.141C54.3006 269.141 56.0779 269.014 57.2205 275.107C57.6014 277.139 59.6326 277.393 78.9295 277.773C96.8299 278.027 100.131 278.408 100.131 280.059C100.131 281.074 98.3533 289.326 96.1951 298.34L92.2596 314.844H84.1346C74.9939 314.844 70.9314 316.367 70.9314 319.668C70.9314 324.873 71.8201 325 128.695 325C185.57 325 186.459 324.873 186.459 319.668C186.459 316.367 182.396 314.844 173.383 314.844H165.131L161.195 298.594C159.037 289.707 157.26 281.455 157.26 280.186C157.26 278.154 159.926 278.027 190.775 278.027H224.291L225.053 283.486C229.242 311.67 260.346 331.094 288.148 322.969C302.367 318.779 313.412 309.131 320.267 294.658C323.822 287.041 324.203 285.137 324.203 274.219C324.203 263.174 323.822 261.396 320.014 253.652C314.808 242.861 306.176 234.229 295.638 229.277C288.275 225.723 286.117 225.342 275.326 225.342C268.724 225.342 261.996 225.85 260.472 226.357L257.553 227.373V207.822V188.145L271.898 187.637C288.402 187.129 292.338 185.352 296.781 176.084C299.193 171.133 299.447 168.34 299.447 148.789C299.447 128.603 299.32 126.953 297.035 125.684C293.861 124.033 293.607 124.033 291.322 126.445C289.672 128.096 289.291 132.031 289.291 149.805C289.291 170.625 289.164 171.387 286.244 174.814L283.197 178.369L258.568 179.004L234.066 179.639L224.545 186.875L215.023 194.111L214.262 188.018C213.754 184.59 212.992 181.162 212.611 180.4C211.976 179.512 206.771 179.004 198.519 179.004C185.697 179.004 185.062 178.877 181.127 175.322L176.937 171.641V114.893V58.1445L181.127 54.4629L185.189 50.7812H233.558H281.928L285.609 54.4629L289.291 58.1445V81.7578C289.291 101.309 289.672 105.498 291.322 107.148C293.607 109.561 293.861 109.561 297.035 107.91C299.32 106.641 299.447 104.99 299.447 82.7734C299.447 54.9707 298.305 50.9082 289.164 44.8144L283.832 41.2597L236.732 41.0058C210.834 40.8789 187.474 41.2597 184.808 41.7675ZM167.67 143.838L168.051 174.814L171.605 179.385C176.937 186.367 180.873 187.891 193.441 187.891H204.232V197.412C204.232 205.537 204.613 207.061 206.771 208.203C209.818 209.854 209.056 210.234 226.068 197.793C235.971 190.43 240.541 187.891 243.461 187.891H247.396V208.203V228.516H128.695H9.99392V177.1C9.99392 120.225 9.99392 120.352 17.992 115.527C21.9275 113.115 24.8474 112.988 94.6717 112.988H167.289L167.67 143.838ZM270.248 239.941C270.248 243.75 269.613 245.273 268.09 245.781C252.855 250.225 243.588 263.555 245.238 278.154C246 283.867 245.873 283.994 241.556 286.025C239.144 287.295 236.859 288.184 236.605 288.184C236.351 288.184 235.463 285.771 234.574 282.725C232.67 275.615 234.066 265.332 237.875 257.08C243.207 245.908 257.426 234.99 266.82 234.863C269.994 234.863 270.248 235.244 270.248 239.941ZM292.592 238.164C295.258 239.434 299.955 242.988 303.256 246.035L308.969 251.621L303.763 254.287L298.431 256.826L293.353 252.51C290.56 250.225 286.371 247.686 284.086 246.924C280.15 245.527 279.769 244.893 279.388 239.941L279.008 234.482L283.451 235.244C285.863 235.625 290.053 237.021 292.592 238.164ZM284.213 257.588C290.687 261.016 294.623 268.252 293.988 275.869C292.719 290.469 278.246 298.594 265.297 291.992C251.967 285.264 251.332 265.586 264.154 257.715C269.486 254.541 278.373 254.414 284.213 257.588ZM313.92 264.316C315.443 270.029 314.681 282.598 312.523 288.818C309.349 297.959 297.289 309.893 288.148 312.939C274.564 317.383 258.314 314.336 247.523 305.195C240.541 299.355 240.287 297.578 246 294.658L250.824 292.119L253.871 295.293C267.709 310.146 293.607 304.941 301.605 285.771C302.621 283.359 303.383 277.773 303.383 273.33C303.383 265.967 303.637 265.205 306.81 263.555C311.635 260.889 313.031 261.016 313.92 264.316ZM150.531 295.166C152.816 304.307 154.594 312.432 154.72 313.193C154.72 314.463 148.754 314.844 128.695 314.844C113.334 314.844 102.67 314.336 102.67 313.701C102.67 311.67 110.287 280.312 111.049 279.17C111.429 278.535 119.554 278.154 129.076 278.281L146.469 278.662L150.531 295.166Z" fill="#51643A"/>
<path d="M39.1934 130.889C31.7031 133.936 26.498 141.68 26.498 149.424C26.625 159.707 35.6387 168.848 45.9219 168.848C54.3008 168.848 61.6641 163.643 60.1406 158.691C59.125 155.518 54.8086 155.391 49.4766 158.311C45.9219 160.342 45.2871 160.469 42.1133 158.691C37.0352 155.898 35.0039 151.201 36.7813 146.123C38.9395 140.029 45.9219 137.744 52.0156 140.918C55.1895 142.695 59.5059 140.41 59.5059 137.109C59.5059 131.777 46.4297 127.842 39.1934 130.889Z" fill="#51643A"/>
<path d="M69.916 130.508C68.7734 131.269 68.3926 136.094 68.6465 149.932C69.0273 168.086 69.0273 168.213 72.0742 168.594C75.6289 169.101 77.2793 167.07 77.2793 162.119V158.691L81.9766 163.769C86.8008 169.228 90.4824 169.99 93.0215 166.055C94.0371 164.404 93.5293 162.881 90.3555 158.945L86.4199 153.994L89.7207 150.693C94.418 145.869 94.418 138.379 89.7207 133.682C86.9277 131.016 84.8965 130.254 78.9297 129.873C74.8672 129.619 70.8047 129.873 69.916 130.508ZM83.6269 142.187C83.6269 144.092 82.7383 144.726 80.4531 144.726C78.168 144.726 77.2793 144.092 77.2793 142.187C77.2793 140.283 78.168 139.648 80.4531 139.648C82.7383 139.648 83.6269 140.283 83.6269 142.187Z" fill="#51643A"/>
<path d="M108.636 131.016C106.478 132.793 101.019 158.945 101.654 164.785C101.908 167.451 102.67 168.213 105.209 168.213C108.763 168.213 111.556 163.897 111.556 158.184C111.556 153.359 112.953 154.883 115.492 162.246C117.015 166.943 118.158 168.34 120.697 168.594C124.633 169.102 126.029 167.324 128.314 159.453L130.218 153.106L131.996 160.723C133.392 166.69 134.281 168.34 136.439 168.594C142.025 169.356 142.533 166.309 139.486 149.17C136.312 132.285 134.408 128.477 129.457 130.127C127.552 130.635 126.156 133.047 124.76 138.125C123.617 142.061 122.22 145.869 121.713 146.377C121.205 146.885 120.062 144.6 119.174 141.299C116.254 130.508 113.334 127.588 108.636 131.016Z" fill="#51643A"/>
<path d="M27.1324 184.082C25.1011 190.43 25.2281 190.43 86.6734 190.43C118.158 190.43 144.691 189.922 145.58 189.287C146.595 188.779 147.103 186.875 146.849 185.225L146.468 182.178L87.1812 181.797C28.4019 181.543 27.8941 181.543 27.1324 184.082Z" fill="#51643A"/>
<path d="M27.7674 203.76C27.0056 204.775 26.6248 206.68 27.1326 208.203C27.8943 210.615 28.783 210.742 61.4099 210.742C83.6267 210.742 95.1795 210.234 95.6873 209.346C96.1951 208.711 96.1951 206.68 95.8142 204.902L95.0525 201.855H62.1717C35.0037 201.855 29.0369 202.236 27.7674 203.76Z" fill="#51643A"/>
<path d="M22.9434 51.0351C21.9277 52.0507 21.4199 58.0175 21.4199 69.3164C21.4199 83.0273 21.8008 86.3281 23.4512 87.7246C24.8477 88.8671 25.9902 88.9941 27.5137 87.9785C29.291 86.9628 29.7988 84.1699 30.0527 73.125L30.4336 59.6679H39.8281H49.3496V72.998C49.3496 84.8046 49.6035 86.3281 51.7617 87.5976C54.9355 89.248 55.1895 89.248 57.4746 86.8359C59.125 85.3125 59.5059 81.7578 59.5059 69.6972C59.5059 61.3183 58.8711 53.3203 58.2363 51.9238C56.9668 49.7656 55.4434 49.5117 40.7168 49.5117C29.7988 49.5117 23.959 50.0195 22.9434 51.0351Z" fill="#51643A"/>
<path d="M198.773 66.0156C192.68 70.8398 192.553 86.2012 198.519 92.168C202.455 96.1035 208.168 96.1035 212.738 92.168C216.039 89.248 216.293 88.4863 216.293 79.3457C216.293 70.2051 216.039 69.4434 212.738 66.5234C208.422 62.8418 203.09 62.5879 198.773 66.0156ZM206.771 78.7109C206.771 82.1387 206.264 85.0586 205.502 85.0586C204.105 85.0586 203.725 74.5215 205.121 73.252C206.644 71.7285 206.771 72.2363 206.771 78.7109Z" fill="#51643A"/>
<path d="M229.877 65.0001C227.465 67.4122 227.846 90.6447 230.385 93.3107C232.162 95.088 232.797 95.088 235.209 93.5646C237.621 91.9142 237.875 90.3907 238.256 79.5997C238.51 69.9513 238.256 67.1583 236.605 65.5079C234.193 63.0958 231.908 62.9689 229.877 65.0001Z" fill="#51643A"/>
<path d="M254.887 65.1269C251.332 67.7929 249.936 71.9824 249.936 79.9804C249.936 86.9629 250.316 88.2324 253.617 91.5332C257.807 95.5957 260.98 96.1035 266.312 93.3105C270.883 91.0254 271.518 89.375 271.518 78.584C271.518 70.8398 271.137 69.3164 268.344 66.6504C264.916 63.2226 258.314 62.4609 254.887 65.1269ZM262.631 79.4726C262.631 82.5195 262.123 85.0586 261.361 85.0586C260.727 85.0586 260.092 82.1386 260.092 78.584C260.092 74.6484 260.6 72.4902 261.361 72.998C262.123 73.3789 262.631 76.2988 262.631 79.4726Z" fill="#51643A"/>
<path d="M201.693 102.832C200.931 104.229 200.423 110.449 200.677 116.924C200.931 126.445 201.439 128.857 203.343 130C204.867 131.016 206.136 131.016 207.787 130C209.564 128.857 210.072 126.318 210.326 116.162C210.707 103.34 209.818 100.293 205.375 100.293C204.105 100.293 202.455 101.436 201.693 102.832Z" fill="#51643A"/>
<path d="M225.814 102.832C222.513 106.133 221.625 110.322 222.259 118.701C223.148 129.619 230.003 134.443 238.382 130.254C245.365 126.572 246.888 109.687 240.794 103.213C237.24 99.4043 229.496 99.1504 225.814 102.832ZM234.701 115.527C234.701 118.955 234.193 121.875 233.431 121.875C232.796 121.875 232.162 118.955 232.162 115.527C232.162 111.973 232.796 109.18 233.431 109.18C234.193 109.18 234.701 111.973 234.701 115.527Z" fill="#51643A"/>
<path d="M257.68 102.07C256.664 103.213 256.283 108.418 256.537 116.924L256.918 130.127H260.727H264.535L264.916 116.289C265.17 106.006 264.789 102.07 263.646 101.309C261.234 99.7852 259.33 100.039 257.68 102.07Z" fill="#51643A"/>
<path d="M256.537 137.744C251.332 140.029 249.936 143.076 249.936 152.978C249.936 160.215 250.316 161.738 253.109 164.404C257.553 168.975 263.9 169.102 268.725 164.658C271.137 162.373 271.518 160.85 271.518 152.344C271.518 143.838 271.137 142.314 268.725 140.029C264.789 136.475 261.234 135.84 256.537 137.744ZM262.631 152.344C262.631 155.771 262.123 158.691 261.361 158.691C260.727 158.691 260.092 155.771 260.092 152.344C260.092 148.789 260.727 145.996 261.361 145.996C262.123 145.996 262.631 148.789 262.631 152.344Z" fill="#51643A"/>
<path d="M198.9 138.506C194.584 140.918 192.933 152.979 195.726 161.23C198.519 169.609 210.961 170.371 215.023 162.373C218.959 155.01 216.547 139.902 211.215 137.871C208.041 136.729 201.312 136.982 198.9 138.506ZM206.771 152.344C206.771 155.772 206.264 158.691 205.502 158.691C204.867 158.691 204.232 155.772 204.232 152.344C204.232 148.789 204.867 145.996 205.502 145.996C206.264 145.996 206.771 148.789 206.771 152.344Z" fill="#51643A"/>
<path d="M229.877 138.633C228.861 139.648 228.354 144.6 228.354 152.344C228.354 164.912 229.242 167.578 233.686 167.578C237.24 167.578 238.51 163.389 238.51 152.344C238.51 146.631 237.875 140.918 237.24 139.521C235.717 136.855 232.162 136.348 229.877 138.633Z" fill="#51643A"/>
</svg>
