<svg width="325" height="325" viewBox="0 0 325 325" fill="none" xmlns="http://www.w3.org/2000/svg">
<path d="M44.6053 1.05268C42.6316 2.10531 40.7895 5.06584 40.7895 7.23689C40.7895 8.02636 40.329 9.47373 39.8026 10.5264C37.829 14.3422 34.079 14.8685 29.6053 11.8422C26.3816 9.6711 23.8816 9.40794 21.1842 10.7895C19.079 11.9079 11.6447 19.4079 10.5921 21.5132C9.34211 23.9474 9.80263 26.6448 11.8421 29.6711C14.8026 34.079 14.3421 37.829 10.5263 39.8027C9.47369 40.329 8.02632 40.7895 7.23684 40.7895C5 40.7895 2.10526 42.6316 0.986842 44.7369C0.263158 46.0527 0 48.6185 0 53.4211C0 62.8948 1.38158 64.8685 8.68421 66.1185C13.8158 66.9079 15.1974 71.908 11.8421 76.908C8.35526 81.9737 9.21053 84.7369 16.25 91.5132C22.3026 97.3685 25.1974 97.9606 30.0658 94.3422C34.2105 91.1843 39.6711 93.0922 40.4605 97.8948C41.6447 105.197 44.2763 106.776 54.4079 106.447L61.3158 106.25L63.5526 103.816C65.1974 101.974 65.7895 100.724 65.7895 98.9474C65.7895 97.2369 66.3158 96.1185 67.6974 94.6711C70.1316 92.3027 73.1579 92.1711 76.3158 94.3422C81.7105 97.9606 84.2763 97.4343 90.5921 91.2501C97.2369 84.8685 98.0921 81.4474 94.3421 76.5132C92.1053 73.5527 92.2369 70.1974 94.6711 67.6974C96.1184 66.3158 97.2369 65.7895 98.9474 65.7895C100.724 65.7895 101.974 65.1974 103.816 63.5527L106.25 61.3158L106.447 54.4079C106.776 44.2764 105.197 41.6448 97.8948 40.4606C93.0921 39.6711 91.1842 34.2106 94.3421 30.0658C97.9605 25.1974 97.3684 22.3027 91.5132 16.25C84.7369 9.21057 81.9737 8.35531 76.9079 11.8422C71.9079 15.1974 66.9079 13.8158 66.1184 8.68426C64.8684 1.31583 62.8947 4.51672e-05 53.2895 4.51672e-05C48.4868 0.0658347 45.8553 0.328993 44.6053 1.05268ZM57.2369 11.7106C59.6711 20.8553 70 25.5264 78.6184 21.4474L81.9079 19.8685L84.2763 22.1711L86.6447 24.4079L85.0658 27.4343C80.8553 35.8553 85.329 46.3816 94.2105 49.0132C97.0395 49.8027 97.0395 49.8027 97.2369 53.1579L97.4342 56.5132L94.8684 57.1711C91.3158 58.1579 88.2237 60.3948 85.9211 63.6843C84.2105 66.1185 83.8816 67.2369 83.6842 71.2501C83.4869 75.329 83.6842 76.4474 85.0658 78.9474L86.7105 81.908L84.4079 84.3422L82.1053 86.7106L79.0132 85.0658C76.4474 83.6843 75.329 83.4869 71.25 83.6843C67.2369 83.8816 66.1184 84.2106 63.6842 85.9211C60.3947 88.2237 58.1579 91.3158 57.1711 94.8685L56.5132 97.4343L53.1579 97.2369C49.8026 97.0395 49.8026 97.0395 49.0132 94.2106C46.3816 85.329 35.8553 80.8553 27.4342 85.0658L24.4079 86.6448L22.1711 84.2764L19.8684 81.908L21.4474 78.6185C25.5263 70.0001 20.8553 59.6711 11.7105 57.1711L9.14474 56.5132L9.34211 53.1579C9.53948 49.8027 9.53948 49.8027 12.3684 49.0132C21.1842 46.3816 25.7895 35.5264 21.4474 27.5658L19.8684 24.6711L22.1711 22.2369L24.4737 19.8685L27.5 21.4474C35.7237 25.8553 47.6974 20.4606 49.079 11.7106L49.5395 9.21057H53.0263H56.5132L57.2369 11.7106Z" fill="#51643A"/>
<path d="M48.8815 25.6578C40.3289 26.9078 31.9078 33.2236 28.2236 41.1184C21.5789 55.2631 27.3683 71.5789 41.3815 78.4868C45.5262 80.4605 46.1183 80.592 53.2894 80.592C60.3289 80.592 61.1183 80.4605 64.8026 78.6841C70.2631 75.9868 75.6578 70.6578 78.3552 65.2631C80.5262 61.0526 80.592 60.592 80.592 53.2894C80.592 46.1184 80.4604 45.5263 78.4868 41.4473C72.9604 30.1973 61.1183 23.8157 48.8815 25.6578ZM60.921 36.1841C64.342 37.6315 68.3552 41.5789 70.0657 45.0657C70.7894 46.6447 71.4473 49.6052 71.5789 52.4341C71.7762 56.3815 71.5789 57.6973 70.2631 60.6578C68.2236 65.0657 65.0657 68.2236 60.6578 70.2631C57.6973 71.5789 56.3815 71.7763 52.4341 71.5789C46.842 71.2499 43.5526 69.8684 39.9341 66.2499C36.3157 62.6315 34.671 58.5526 34.671 53.2894C34.671 39.5394 48.2894 30.7236 60.921 36.1841Z" fill="#51643A"/>
<path d="M275.789 1.11859C273.552 3.02648 263.158 21.5791 263.158 23.6186C263.158 24.6054 263.684 25.9212 264.342 26.5133C265.855 27.8949 269.342 27.9607 270.592 26.7107C272.631 24.6712 282.895 6.0528 282.895 4.40806C282.895 2.36859 280.592 0.000165655 278.552 0.000165655C277.763 0.000165655 276.513 0.526481 275.789 1.11859Z" fill="#51643A"/>
<path d="M207.368 4.60518C202.566 7.03939 199.145 11.0526 197.697 15.9868C196.382 20.4604 196.447 22.8947 198.092 27.8947L199.474 32.171L197.697 35.3289C187.829 52.3025 171.184 70.9868 152.105 86.3815C145.658 91.6447 144.408 92.3683 142.5 92.2368C140.658 92.0394 137.895 93.3552 127.303 99.4736C112.237 108.092 108.026 111.316 104.211 116.908C100.132 122.895 98.5526 127.5 98.1579 134.934C97.829 142.303 98.6184 146.447 101.579 152.631C104.013 157.763 111.25 165.263 116.25 167.96C120.526 170.197 128.75 172.368 133.224 172.368C137.303 172.368 145.592 170.329 149.342 168.421C150.855 167.631 152.171 167.105 152.303 167.237C152.368 167.368 160.066 177.631 169.342 190.131C178.684 202.631 187.237 213.75 188.487 214.934C191.25 217.566 195.395 218.355 198.947 216.842C202.171 215.526 210.855 207.631 212.105 204.934C213.289 202.5 213.487 198.947 212.566 196.579C212.237 195.724 204.408 184.803 195.132 172.368C185.855 159.868 178.289 149.474 178.289 149.276C178.289 148.553 195.461 142.303 204.803 139.539C219.934 135.131 233.487 132.763 249.342 131.842L256.908 131.447L259.737 134.803C263.882 139.737 268.158 141.71 274.342 141.776C280.197 141.776 284.013 140.263 287.829 136.513C292.303 131.974 294.342 124.803 292.829 118.684C292.368 117.039 287.632 107.96 282.171 98.5525L272.303 81.5131L275.855 77.6315C280.526 72.6315 281.842 68.8157 281.447 61.9078C281.118 56.2499 279.671 52.8289 275.921 48.6841C270.987 43.2236 262.303 40.921 254.934 43.092C251.382 44.0789 250.987 44.0789 250.263 43.1578C249.868 42.5657 245.395 34.9999 240.395 26.2499C235.395 17.5657 230.263 9.40781 229.079 8.15781C225.658 4.60518 222.105 3.09203 216.447 2.82887C211.908 2.56571 211.184 2.69729 207.368 4.60518ZM221.382 13.6183C223.618 15.1973 283.355 118.224 283.947 121.513C284.539 124.737 283.618 127.5 281.184 129.934C277.5 133.684 271.316 133.684 267.829 130C265.461 127.5 207.237 26.3157 206.447 23.3552C205.855 21.0526 205.921 20.2631 207.105 17.6315C208.947 13.421 211.711 11.7104 216.184 12.0394C218.224 12.171 220.329 12.8289 221.382 13.6183ZM228.75 81.7104C241.513 103.881 251.842 122.105 251.645 122.237C251.513 122.368 247.566 122.763 242.961 123.092C232.5 123.816 221.447 125.658 209.539 128.75C200.066 131.184 183.947 136.447 177.697 139.21C175.789 140.066 173.816 140.789 173.421 140.789C173.026 140.789 167.434 131.645 161.053 120.526L149.408 100.329L151.184 99.0131C152.171 98.2894 156.513 94.7368 160.855 91.1841C176.053 78.5525 191.184 62.1052 200.855 47.5657C203.092 44.2104 205.066 41.4473 205.263 41.4473C205.461 41.5131 216.053 59.6052 228.75 81.7104ZM265.461 52.5657C270.197 54.7368 272.368 58.2236 272.368 63.6183C272.368 66.7762 270 71.9078 268.224 72.5657C267.632 72.7631 265.526 69.8025 261.776 63.2894C258.75 58.0262 256.184 53.3552 256.053 52.8947C255.592 51.1183 261.842 50.8552 265.461 52.5657ZM153.026 125C159.803 136.71 165.461 146.776 165.592 147.368C165.789 148.092 162.763 150.066 155.132 154.408C142.5 161.513 140.724 162.368 136.053 162.895C125.329 164.145 114.079 157.631 109.342 147.566C107.763 144.145 107.566 142.96 107.566 136.842C107.566 130.395 107.697 129.671 109.671 125.658C110.789 123.289 113.026 120.131 114.605 118.618C117.632 115.658 139.474 102.566 140.263 103.224C140.461 103.421 146.25 113.224 153.026 125ZM187.829 177.96C196.711 189.868 203.947 200 203.947 200.395C203.947 201.184 195.987 208.553 195.197 208.553C194.671 208.553 161.25 164.145 160.789 162.895C160.461 162.039 170.132 155.724 171.184 156.118C171.447 156.184 178.947 165.987 187.829 177.96Z" fill="#51643A"/>
<path d="M301.052 34.7367C293.158 39.342 291.118 40.8551 290.592 42.3683C290.131 43.8157 290.263 44.5393 291.25 45.9867C293.487 48.9472 295.329 48.6183 304.473 43.3551C316.052 36.7762 317.105 35.9209 317.105 33.2893C317.105 30.6578 315.394 28.9472 312.763 28.9472C311.579 28.9472 307.237 31.0525 301.052 34.7367Z" fill="#51643A"/>
<path d="M297.566 72.8289C294.342 73.4868 293.026 77.8946 295.395 80.2631C296.645 81.5131 297.566 81.5789 309.539 81.5789C321.513 81.5789 322.434 81.5131 323.684 80.2631C325.329 78.6183 325.395 76.2499 323.75 74.2762C322.5 72.7631 322.237 72.6973 310.724 72.5657C304.276 72.5657 298.355 72.6315 297.566 72.8289Z" fill="#51643A"/>
<path d="M76.6448 129.605C42.9606 138.289 17.3027 156.382 6.25004 179.145C2.43425 187.105 0.72372 193.618 0.197405 201.645C-1.18417 226.184 12.9606 248.75 40.1316 265.263C44.079 267.632 47.6974 269.737 48.0921 269.868C48.6842 270.066 47.1053 277.763 43.0921 295.197C39.2106 311.974 37.4342 320.789 37.7632 321.974C38.2895 324.013 40.6579 325.329 42.8948 324.737C43.75 324.539 57.2369 315.395 72.8948 304.474L101.447 284.539L109.737 284.934C120.526 285.461 135.79 284.605 145.79 282.895C150.066 282.171 154.145 281.382 154.737 281.184C155.79 280.855 155.855 282.303 156.053 299.605C156.25 317.303 156.316 318.421 157.632 320.132C158.355 321.118 159.803 322.566 160.79 323.289C162.566 324.671 163.355 324.671 202.5 324.803L242.434 325L245.066 323.487C246.776 322.566 248.224 321.053 249.211 319.079L250.658 316.118L250.526 286.053C250.329 256.908 250.263 255.987 248.947 254.211C245.658 249.803 245.329 249.671 230.132 249.342L216.25 249.013L218.816 246.053C228.158 235.197 233.355 223.947 235 210.855C237.5 191.184 227.303 169.013 209.013 154.145C203.553 149.671 201.579 149.079 199.342 151.316C197.105 153.553 197.632 156.382 200.855 159.145C213.684 170 221.579 181.382 224.803 193.421C226.316 199.211 226.316 210.658 224.803 216.447C222.237 226.118 216.579 235.461 208.158 243.882L202.763 249.276L182.5 249.474C159.737 249.671 160.197 249.605 157.303 254.671C156.118 256.711 155.921 258.224 155.921 264.276V271.513L150.855 272.632C137.895 275.395 114.737 276.776 102.961 275.395L99.0132 274.934L74.4737 292.105C60.9211 301.579 49.7369 309.211 49.6053 309.079C49.4737 308.947 51.4474 299.934 53.9474 289.145C56.5132 278.289 58.5527 268.487 58.5527 267.368C58.5527 264.803 57.6316 264.013 50.7237 260.592C21.4474 245.987 5.26319 220.197 10.1316 196.053C12.5 184.605 17.4342 175.921 27.2369 166.053C39.9342 153.355 55.6579 144.934 77.829 138.816C87.3027 136.25 88.8158 135.329 88.8158 132.5C88.8158 130.789 86.9737 128.553 85.1974 128.026C84.4737 127.829 80.6579 128.553 76.6448 129.605ZM241.118 287.171V315.461H203.29H165.461L165.263 286.974L165.132 258.553L203.092 258.684L241.118 258.882V287.171Z" fill="#51643A"/>
<path d="M187.237 268.487L185.526 269.803V286.908C185.526 303.092 185.592 304.013 186.842 305.263C187.566 305.987 188.947 306.579 189.934 306.579C191.908 306.579 216.513 292.697 219.276 290.066C221.316 287.96 221.513 286.25 219.934 284.342C218.487 282.697 191.447 267.105 190 267.105C189.474 267.105 188.224 267.697 187.237 268.487ZM201.25 283.553C204.145 285.197 206.579 286.71 206.579 286.974C206.579 287.171 205 288.224 203.158 289.342C201.25 290.395 198.553 291.974 197.237 292.763L194.737 294.21V287.171C194.737 283.289 195 280.263 195.329 280.395C195.658 280.46 198.29 281.908 201.25 283.553Z" fill="#51643A"/>
<path d="M296.645 145.921C294.276 147.5 292.961 149.211 289.211 155.855C285.329 162.697 284.737 164.276 284.737 167.039C284.737 171.776 286.908 175.197 291.645 178.092C295.461 180.395 295.526 180.526 295.132 182.829C294.276 188.355 283.421 207.303 278.618 211.842L276.908 213.421L272.763 211.316C266.053 207.895 259.803 208.75 256.25 213.421C255.461 214.539 253.026 218.487 250.987 222.171C247.829 227.895 247.237 229.408 247.237 232.171C247.237 236.184 248.75 239.013 252.5 241.908C257.171 245.46 261.974 246.974 268.75 246.908C279.079 246.908 286.908 242.895 297.434 232.303C312.961 216.645 325 191.053 325 173.684C325 161.25 319.013 150.724 309.079 145.789C304.408 143.421 300.526 143.487 296.645 145.921ZM306.447 154.868C316.579 161.382 318.421 174.079 311.776 192.368C307.171 205.132 300 216.513 290.461 226.053C285.066 231.513 282.895 233.158 278.618 235.263C274.013 237.5 272.895 237.829 268.75 237.763C265.197 237.763 263.421 237.368 260.921 236.118C255.395 233.355 255.329 232.895 259.737 225.329C262.434 220.658 263.947 218.684 264.934 218.553C265.724 218.421 267.829 219.145 269.671 220.066C277.237 224.013 281.842 222.697 288.092 214.803C296.382 204.408 303.947 189.276 304.408 182.237C304.737 177.368 302.829 174.079 298.026 171.184C296.053 170.066 294.211 168.684 293.947 168.224C293.487 167.303 294.342 165.461 298.816 157.697C301.711 152.697 302.566 152.368 306.447 154.868Z" fill="#51643A"/>
<path d="M60.4602 183.618C58.0918 184.474 56.8418 187.5 57.9602 189.605C58.355 190.395 59.0786 191.316 59.4734 191.579C59.8681 191.842 79.3418 192.105 102.829 192.105C144.539 192.105 145.394 192.105 146.71 190.789C148.355 189.145 148.421 186.776 146.776 184.803L145.526 183.224L103.815 183.092C77.7629 183.026 61.5129 183.224 60.4602 183.618Z" fill="#51643A"/>
<path d="M60.0657 217.895C59.2763 218.289 58.2894 219.474 57.8289 220.526C57.171 222.171 57.2368 222.697 58.3552 224.21L59.671 225.987L117.434 226.184C162.105 226.316 175.395 226.118 176.184 225.526C178.684 223.421 178.158 219.145 175.263 217.829C173.026 216.842 62.171 216.842 60.0657 217.895Z" fill="#51643A"/>
</svg>
