<svg width="322" height="326" viewBox="0 0 322 326" fill="none" xmlns="http://www.w3.org/2000/svg">
<path d="M43.7073 2.27267C37.0407 6.40601 35.3073 11.3393 34.774 28.2727L34.2407 44.006H23.4407C15.174 44.006 11.8407 44.5393 8.50734 46.6727C0.107342 51.8727 0.507342 46.406 0.107342 164.006C-0.159325 223.073 0.107342 274.539 0.507342 278.539C1.17401 284.006 2.37401 286.673 5.84068 290.539L10.2407 295.339L71.7073 295.739L133.174 296.139V308.539C133.174 315.473 133.574 322.006 133.974 323.206C134.641 325.073 139.841 325.339 178.507 325.339C217.174 325.339 222.374 325.073 223.041 323.206C223.441 322.006 223.841 315.473 223.841 308.673V296.139L250.507 295.739L277.174 295.339L281.307 291.206C286.374 286.139 287.707 280.273 287.841 264.273V252.006H298.641C310.774 252.006 315.307 250.139 319.307 243.473C321.707 239.473 321.841 234.673 321.841 126.006C321.841 17.3393 321.707 12.5393 319.307 8.53934C313.841 -0.527328 323.441 0.00600517 178.241 0.00600517C59.4407 0.139339 46.9073 0.272672 43.7073 2.27267ZM309.707 10.806L313.174 13.4727V34.1393V54.6727H230.907H148.507L137.574 43.606L126.507 32.6727L103.441 32.2727C74.1073 31.8727 73.974 31.8727 73.4407 45.0727L73.0407 54.6727H58.5073H43.8407V34.1393V13.4727L47.3073 10.806C50.9073 8.00601 51.4407 8.00601 178.507 8.00601C305.574 8.00601 306.107 8.00601 309.707 10.806ZM133.841 52.6727L144.507 64.006H228.907H313.174V151.206V238.539L309.707 241.206C306.241 243.873 304.641 244.006 262.641 243.873C222.241 243.873 219.441 243.739 223.441 241.739C229.041 238.939 231.041 234.406 228.774 229.473C223.707 217.739 182.907 146.539 180.907 145.873C179.574 145.473 177.441 145.473 176.107 145.873C174.641 146.406 164.641 162.939 150.907 187.739C138.507 210.273 127.841 229.739 127.441 231.073C126.107 234.539 128.907 239.339 133.574 241.739C137.574 243.739 134.774 243.873 94.374 243.873C52.374 244.006 50.774 243.873 47.3073 241.206L43.8407 238.539V151.206V64.006H59.8407C79.8407 64.006 81.174 63.206 81.174 50.006V41.3393H102.241H123.174L133.841 52.6727ZM34.774 145.606C35.174 234.673 35.3073 239.606 37.7073 243.473C42.9073 252.006 42.5073 252.006 97.0407 252.006H146.507L147.841 255.473C150.107 261.206 149.441 262.273 143.574 263.073C135.307 264.139 133.174 267.473 133.174 278.806V288.006H74.6407C17.574 288.006 16.1073 288.006 12.6407 285.206L9.17401 282.539V170.006V57.4727L12.6407 54.806C15.4407 52.5393 18.1073 52.006 25.3073 52.006H34.374L34.774 145.606ZM174.507 175.873C174.507 185.339 174.241 186.539 171.841 187.339C168.374 188.406 165.174 194.673 165.174 200.006C165.174 206.406 171.441 212.006 178.507 212.006C191.707 212.006 197.041 194.006 185.707 187.873C182.774 186.406 182.507 185.473 182.507 175.606C182.507 169.739 182.907 165.339 183.441 165.873C183.974 166.406 192.641 181.606 202.641 199.739L220.907 232.539L214.374 236.273C206.507 240.806 201.041 248.539 200.107 256.673L199.441 262.673H178.507H157.574L156.774 256.539C155.974 248.406 150.107 240.273 142.241 236.006L135.974 232.673L154.774 198.939C165.041 180.539 173.707 165.339 173.974 165.339C174.241 165.339 174.507 170.139 174.507 175.873ZM182.241 196.273C184.374 198.406 184.241 199.339 181.707 201.873C178.907 204.806 176.241 204.539 174.507 201.206C171.841 196.273 178.241 192.273 182.241 196.273ZM278.507 267.206C278.507 282.139 278.374 282.539 275.041 285.206C271.707 287.739 269.707 288.006 247.707 288.006H223.841V278.806C223.841 267.473 221.707 264.139 213.441 263.073C207.574 262.273 206.907 261.206 209.174 255.473L210.507 252.006H244.507H278.507V267.206ZM214.507 294.673V317.339H178.507H142.507V294.673V272.006H178.507H214.507V294.673Z" fill="#51643A"/>
<path d="M223.174 23.3394C218.107 28.2727 218.507 36.006 223.974 40.5394C229.441 45.206 235.041 45.0727 239.974 40.1394C245.441 34.6727 244.907 26.5394 238.641 21.7394C234.907 18.806 226.774 19.606 223.174 23.3394ZM234.241 31.7394C234.641 33.8727 233.974 34.6727 231.974 34.6727C228.507 34.6727 227.174 32.406 229.307 29.8727C231.441 27.3394 233.707 28.1394 234.241 31.7394Z" fill="#51643A"/>
<path d="M254.374 21.7394C251.307 24.0061 249.174 28.6728 249.174 32.6728C249.174 37.7394 255.84 44.0061 261.174 44.0061C271.307 44.0061 277.04 30.4061 269.84 23.3394C266.24 19.6061 258.107 18.8061 254.374 21.7394ZM263.84 30.0061C265.84 32.2728 264.507 34.6728 261.174 34.6728C258.24 34.6728 256.774 31.6061 258.907 29.4728C260.907 27.4728 261.84 27.6061 263.84 30.0061Z" fill="#51643A"/>
<path d="M281.84 24.2728C278.907 27.7394 278.374 29.4728 279.04 33.2061C280.374 41.7394 288.907 46.4061 296.24 42.4061C300.774 40.0061 302.374 37.2061 302.507 31.6061C302.507 20.4061 289.174 15.6061 281.84 24.2728ZM293.04 29.2061C295.574 30.8061 293.84 34.6728 290.507 34.6728C288.774 34.6728 287.84 33.7394 287.84 32.2728C287.84 28.1394 289.707 27.0728 293.04 29.2061Z" fill="#51643A"/>
<path d="M163.307 97.7393C162.107 98.6727 160.64 102.006 160.24 105.073L159.44 110.673H129.574H99.8404L98.6404 107.606C97.9738 105.873 95.4404 102.806 93.1738 100.939C89.8404 98.1393 87.5738 97.3393 82.2404 97.3393C76.5071 97.3393 75.0404 97.8727 71.1738 101.739C59.3071 113.606 67.7071 131.739 84.3738 130.273C89.9738 129.739 91.7071 128.939 95.4404 124.806L99.8404 120.006H119.44H138.907L129.574 126.539C124.374 130.139 117.44 136.273 113.974 140.273C107.44 147.873 99.0404 162.673 96.5071 171.339C95.0404 176.273 94.5071 176.673 89.7071 177.073C80.9071 177.873 79.8404 179.873 79.8404 194.939C79.8404 212.673 80.5071 213.339 98.2404 213.339C115.574 213.339 115.84 213.073 115.84 195.073C115.84 180.273 114.374 177.339 107.307 177.339C102.774 177.339 103.174 175.873 110.24 161.473C117.174 147.473 129.174 135.473 143.707 128.273C149.84 125.206 155.84 122.673 157.04 122.673C158.24 122.806 160.374 124.673 161.84 127.073L164.507 131.339L178.107 131.739C191.307 132.139 191.574 132.006 194.374 128.539C195.974 126.539 197.174 124.139 197.174 123.206C197.174 121.739 198.24 121.873 202.64 123.339C222.507 130.406 238.907 144.806 247.707 162.939C250.774 169.073 253.174 174.939 253.174 175.739C253.174 176.673 251.707 177.339 249.84 177.339C243.04 177.339 241.174 181.339 241.174 195.339C241.174 212.673 241.974 213.339 259.574 213.339C275.84 213.339 277.44 212.139 278.24 199.339C279.307 182.939 276.64 177.339 267.84 177.339C262.774 177.339 262.774 177.339 259.84 168.673C254.374 152.139 240.774 134.939 225.174 124.806L217.84 120.006H238.107C257.974 120.006 258.24 120.006 260.374 123.339C265.974 131.873 279.974 133.073 286.774 125.473C296.907 114.139 289.707 97.3393 274.507 97.3393C269.44 97.3393 267.174 98.1393 263.84 100.939C261.574 102.806 259.04 105.873 258.374 107.606L257.174 110.673H227.44H197.574L196.774 105.073C195.707 97.0727 193.574 96.006 178.507 96.006C170.107 96.006 164.907 96.5393 163.307 97.7393ZM187.84 114.006V124.006H178.507H169.174V114.006V104.006H178.507H187.84V114.006ZM88.1071 107.606C91.7071 110.806 91.3071 118.139 87.1738 120.806C81.5738 124.406 74.5071 120.273 74.5071 113.339C74.5071 106.539 83.0404 102.939 88.1071 107.606ZM279.574 107.473C284.774 111.073 282.774 120.273 276.374 121.873C271.174 123.206 266.507 119.606 266.507 114.406C266.507 106.539 273.174 102.939 279.574 107.473ZM107.574 195.606L107.974 205.339H97.8404H87.8404V195.339V185.206L97.5738 185.606L107.174 186.006L107.574 195.606ZM269.174 195.339V205.339H259.974H250.907L249.974 196.673C249.44 191.873 249.44 187.339 249.84 186.673C250.374 185.873 254.774 185.339 259.974 185.339H269.174V195.339Z" fill="#51643A"/>
</svg>
