<svg width="286" height="331" viewBox="0 0 286 331" fill="none" xmlns="http://www.w3.org/2000/svg">
<path d="M225.998 1.17837C197.511 12.6008 11.9995 94.4844 9.79757 96.4111C8.14614 98.0625 5.94423 101.503 5.11851 104.118C3.74231 108.246 4.01755 110.035 7.32042 118.568C10.3481 126.137 10.8985 128.614 9.52233 130.403C1.5404 141.413 -0.936753 148.707 0.301823 157.789C1.67802 167.973 9.2471 179.12 17.9171 183.662L21.6329 185.589L22.0457 250.82C22.4586 314.676 22.4586 316.19 25.3486 320.043C26.8624 322.107 30.3029 325.272 32.78 327.061L37.3215 330.089H153.885H270.449L274.99 326.924C277.468 325.272 280.908 322.107 282.422 320.043C285.312 316.19 285.312 314.813 285.587 243.664L286 171.139L282.835 165.634C280.908 162.056 277.743 159.028 273.614 156.964L267.559 153.936H166.684C71.5887 153.936 65.8087 153.798 65.8087 151.459C65.8087 150.22 65.3959 147.881 64.983 146.229C64.2949 143.615 69.7997 141 128.701 115.403C248.705 63.3824 254.898 60.4924 258.063 56.9143C263.981 50.3086 263.568 45.7671 255.586 27.1885C251.595 17.8303 247.467 8.74745 246.366 6.9584C242.375 0.903136 233.154 -1.71164 225.998 1.17837ZM235.906 11.9127C238.797 13.7018 251.87 46.3176 250.632 48.3819C249.806 50.0333 244.439 48.3819 221.594 39.299C206.318 33.2437 194.208 27.7389 194.758 27.1885C196.547 25.537 229.989 10.9494 232.328 10.9494C233.429 10.9494 235.081 11.3622 235.906 11.9127ZM207.006 45.3543C222.557 51.5471 235.081 56.6391 234.806 56.9143C233.705 58.0153 199.024 72.7405 197.511 72.7405C194.896 72.8782 141.499 51.8224 141.499 50.7214C141.499 49.7581 175.079 34.4823 177.556 34.3447C178.244 34.2071 191.318 39.1614 207.006 45.3543ZM154.16 68.1991C169.023 74.1167 181.409 79.3463 181.409 79.7591C181.409 80.172 173.014 84.163 162.831 88.5668L144.114 96.5487L116.59 85.6768C101.452 79.7591 88.7912 74.5296 88.516 73.9791C87.8279 73.0158 121.82 57.74 124.848 57.6024C125.948 57.6024 139.16 62.4191 154.16 68.1991ZM105.994 93.3835L129.802 102.742L121.545 106.457C117.003 108.384 108.333 112.237 102.278 114.852L91.2683 119.531L64.4325 109.072C49.7072 103.292 36.771 98.2002 35.8077 97.6497C34.7067 96.9616 41.0372 93.5211 53.0101 88.2916C71.7264 80.0344 72.1392 80.0344 77.0935 81.9611C79.8459 83.062 92.9198 88.1539 105.994 93.3835ZM47.2301 114.164C62.9187 120.357 75.1669 125.862 74.4788 126.412C73.9283 126.963 70.0749 128.889 66.084 130.541L58.7901 133.706L55.0744 130.266C48.0558 123.66 42.551 121.733 31.1286 121.871H20.5319L17.7795 115.265C16.1281 111.687 14.8895 108.109 14.8895 107.558C14.8895 106.457 17.6419 103.017 18.4676 103.017C18.7428 103.017 31.6791 107.971 47.2301 114.164ZM44.4777 135.908C50.9458 139.624 55.0744 147.743 54.3863 155.725C53.8358 162.744 50.8082 167.836 44.6153 172.377C39.2482 176.368 26.3119 176.368 20.9448 172.377C11.3114 165.221 8.28376 154.487 13.2381 144.716C19.2933 133.018 32.9177 129.165 44.4777 135.908ZM118.792 186.965L140.811 208.984H119.48H98.1493L79.7083 190.543C61.9554 172.79 61.2673 171.827 62.7811 168.524C64.2949 164.946 64.5702 164.946 80.534 164.946H96.7731L118.792 186.965ZM176.592 186.965L198.612 208.984H177.281H155.95L133.93 186.965L111.911 164.946H133.242H154.573L176.592 186.965ZM234.393 186.965L256.412 208.984H235.081H213.75L191.731 186.965L169.711 164.946H191.043H212.374L234.393 186.965ZM268.522 166.597C274.302 169.625 274.853 171.689 274.99 190.681C274.99 204.58 274.578 208.984 273.201 208.984C272.238 208.984 261.641 199.075 249.531 186.965L227.512 164.946H246.503C258.338 164.946 266.733 165.496 268.522 166.597ZM68.5611 194.534L83.0112 208.984H57.8268H32.78V197.974V186.965H36.6334C38.6977 186.965 43.2391 185.451 46.542 183.662C49.9825 181.873 53.0101 180.359 53.423 180.221C53.8358 180.221 60.5792 186.552 68.5611 194.534ZM274.99 266.096V312.336L271.55 315.639L268.247 319.08H153.885H39.5234L36.2205 315.639L32.78 312.336V266.096V219.993H153.885H274.99V266.096Z" fill="#51643A"/>
<path d="M144.527 226.875C136.683 228.526 125.536 234.719 121.269 239.948C113.976 248.481 110.535 258.252 110.535 270.225C110.535 283.436 113.976 291.556 123.334 300.914C132.279 309.859 139.848 312.887 153.885 312.887C163.932 312.887 166.684 312.336 173.427 309.033C182.097 304.767 189.391 297.198 194.07 287.565C198.749 278.207 198.474 261.967 193.657 251.646C188.565 240.774 183.749 235.82 174.115 231.141C164.62 226.599 153.748 224.948 144.527 226.875ZM168.611 240.499C180.171 246.279 187.74 259.766 186.639 272.289C184.162 297.749 156.225 310.96 135.031 296.648C123.334 288.666 117.967 272.151 122.921 259.077C130.215 239.948 151.133 231.554 168.611 240.499Z" fill="#51643A"/>
<path d="M139.022 247.792C136.683 250.132 136.683 288.941 139.022 291.28C141.912 294.17 146.041 292.932 162.693 283.574C179.345 274.215 182.51 271.463 180.996 267.885C180.17 265.545 145.766 246.141 142.6 246.141C141.499 246.141 139.986 246.829 139.022 247.792ZM157.05 265.408C160.628 267.197 163.519 269.123 163.519 269.536C163.519 270.5 150.72 277.794 149.206 277.794C148.793 277.794 148.38 274.078 148.38 269.399C148.38 264.857 148.793 261.279 149.481 261.554C150.032 261.83 153.335 263.481 157.05 265.408Z" fill="#51643A"/>
<path d="M260.128 68.887C256.962 72.0523 258.476 75.2175 266.596 82.2361C274.99 89.53 277.33 90.4933 280.22 87.6033C283.385 84.438 281.871 81.1352 274.027 74.2542C266.045 67.098 263.018 65.997 260.128 68.887Z" fill="#51643A"/>
<path d="M237.283 85.952C234.393 88.842 234.53 89.943 239.622 100.264C243.2 107.558 244.577 109.21 247.329 109.21C252.971 109.21 253.797 105.632 250.357 97.3744C244.577 83.6125 241.824 81.2729 237.283 85.952Z" fill="#51643A"/>
<path d="M209.208 90.9065C208.245 91.8698 207.557 96.9617 207.557 103.843C207.557 115.678 208.795 117.88 214.438 116.091C217.465 115.128 218.566 111.412 218.566 101.366C218.566 91.3193 214.025 86.0898 209.208 90.9065Z" fill="#51643A"/>
</svg>
