<svg xmlns="http://www.w3.org/2000/svg" viewBox="0 0 64 64"><defs><style>.cls-1{fill:#fff;}.cls-2{fill:#fff;}</style></defs><polygon class="cls-1" points="51.04 10.14 51.04 1.81 43.92 4.19 43.88 12.2 51.04 10.14"/><polygon class="cls-2" points="11.2 15.13 11.2 23.08 38.81 32.06 39.99 32.44 51.04 36.01 51.04 27.97 49.77 27.55 21.83 18.56 41.46 12.9 41.49 5 11.2 15.13"/><polygon class="cls-2" points="10.8 28.49 10.8 36.82 40.01 45.24 19.92 51.7 19.67 59.82 21.85 59.12 23.03 58.74 50.64 49.76 50.64 41.8 10.8 28.49"/><polygon class="cls-1" points="10.8 54.65 10.8 62.69 17.23 60.59 17.48 52.49 12.99 53.93 10.8 54.65"/></svg>