<svg id="Calque_1" data-name="Calque 1" xmlns="http://www.w3.org/2000/svg" viewBox="0 0 530.27 158.24"><defs><style>.cls-1{fill:#fff;}</style></defs><polygon class="cls-1" points="104.6 31.56 104.6 13.39 89.06 18.58 88.98 36.06 104.6 31.56"/><polygon class="cls-1" points="17.66 42.44 17.66 59.79 77.91 79.39 80.48 80.22 104.6 88.02 104.6 70.46 101.83 69.54 40.85 49.93 83.68 37.59 83.76 20.35 17.66 42.44"/><polygon class="cls-1" points="16.79 71.6 16.79 89.77 80.53 108.14 36.7 122.24 36.16 139.96 40.91 138.43 43.48 137.61 103.73 118 103.73 100.65 16.79 71.6"/><polygon class="cls-1" points="16.79 128.68 16.79 146.23 30.82 141.65 31.36 123.96 21.58 127.1 16.79 128.68"/><path class="cls-1" d="M212.67,62.38h-4.43V24.56h4.43Z"/><path class="cls-1" d="M232.92,63c-4.08,0-7.28-1.3-9.63-3.89s-3.51-6.14-3.51-10.64q0-6.51,3.4-10.57a11.32,11.32,0,0,1,8.95-4.13,10.34,10.34,0,0,1,8.27,3.57q3.06,3.57,3,9.52c0,.21,0,.58,0,1.13s0,.94,0,1.18H224.18a11.08,11.08,0,0,0,2.46,7.45,8.21,8.21,0,0,0,6.43,2.67A19,19,0,0,0,242,56.91l.67,3.45A18.3,18.3,0,0,1,232.92,63Zm4.31-23.46a6.39,6.39,0,0,0-5.16-2.24,6.82,6.82,0,0,0-5.34,2.32,10.62,10.62,0,0,0-2.43,6.32h14.81A9.71,9.71,0,0,0,237.23,39.51Z"/><path class="cls-1" d="M285,62.38V47.78c0-1.36,0-2.51-.09-3.43a18.87,18.87,0,0,0-.41-2.81,6.26,6.26,0,0,0-.9-2.26A4.18,4.18,0,0,0,282,37.92a5.32,5.32,0,0,0-2.46-.52,7.65,7.65,0,0,0-4.79,1.51,8.22,8.22,0,0,0-2.83,4.24,32.59,32.59,0,0,0-.22,3.94V62.38h-4.28V47.32c0-1.26,0-2.36-.12-3.28a16.12,16.12,0,0,0-.49-2.72,6.58,6.58,0,0,0-1-2.13,4.24,4.24,0,0,0-1.6-1.31,5.39,5.39,0,0,0-2.37-.48A8.37,8.37,0,0,0,256.73,39a7.6,7.6,0,0,0-2.8,4.14,37.8,37.8,0,0,0-.22,4.27v15h-4.28q0-26.31-.05-28.05H253l.54,4a10.27,10.27,0,0,1,3.63-3.28,10.74,10.74,0,0,1,5.34-1.33,12.39,12.39,0,0,1,2.88.32,9.42,9.42,0,0,1,2.2.81A7,7,0,0,1,269.12,36a6.43,6.43,0,0,1,1.07,1.33,8.59,8.59,0,0,1,.65,1.37q3.06-5,9.38-5,4.68,0,6.86,2.68t2.19,7.91V62.38Z"/><path class="cls-1" d="M312.1,62.38c-.25-1.09-.5-2.27-.74-3.53A14.86,14.86,0,0,1,307,62.07a11.9,11.9,0,0,1-4.81.9,9.4,9.4,0,0,1-6.33-2.06A7.4,7.4,0,0,1,293.46,55a7,7,0,0,1,3.26-6.37c2.17-1.38,5.31-2.24,9.4-2.58l2.54-.22,2.55-.21V43.13a6.13,6.13,0,0,0-1.38-4.4,5.79,5.79,0,0,0-4.35-1.43,19.08,19.08,0,0,0-8.36,2q-.14-.3-.66-1.77T295.89,36a18.12,18.12,0,0,1,4.44-1.67,21.83,21.83,0,0,1,5.23-.63c3.49,0,6,.77,7.55,2.29s2.32,4.12,2.32,7.79V62.38Zm-9.28-2.86a8.88,8.88,0,0,0,5.36-1.68,7.55,7.55,0,0,0,3-4.51V48.6c-.09,0-.61,0-1.55.13l-1.85.15c-3.7.32-6.28.93-7.74,1.81A4.63,4.63,0,0,0,297.84,55a4.25,4.25,0,0,0,1.33,3.41A5.41,5.41,0,0,0,302.82,59.52Z"/><path class="cls-1" d="M340.18,62.38c-.26-1.09-.51-2.27-.75-3.53a14.86,14.86,0,0,1-4.37,3.22,11.81,11.81,0,0,1-4.8.9,9.36,9.36,0,0,1-6.33-2.06A7.37,7.37,0,0,1,321.54,55a7,7,0,0,1,3.26-6.37q3.26-2.07,9.39-2.58l2.55-.22,2.54-.21V43.13a6.13,6.13,0,0,0-1.38-4.4,5.79,5.79,0,0,0-4.35-1.43,19.11,19.11,0,0,0-8.36,2q-.12-.3-.66-1.77c-.36-1-.55-1.49-.56-1.53a17.88,17.88,0,0,1,4.43-1.67,22,22,0,0,1,5.23-.63c3.49,0,6,.77,7.55,2.29s2.32,4.12,2.32,7.79V62.38Zm-9.29-2.86a8.88,8.88,0,0,0,5.36-1.68,7.55,7.55,0,0,0,3-4.51V48.6c-.09,0-.6,0-1.55.13l-1.85.15c-3.7.32-6.28.93-7.74,1.81A4.65,4.65,0,0,0,325.91,55a4.25,4.25,0,0,0,1.33,3.41A5.41,5.41,0,0,0,330.89,59.52Z"/><path class="cls-1" d="M363.44,34.08a13.46,13.46,0,0,1,2.1.15l-.16,3.94a11.75,11.75,0,0,0-2-.21,7.44,7.44,0,0,0-5.82,2.5,8.88,8.88,0,0,0-2.23,6.17V62.38H351q0-25.83,0-28.05h3.55l.41,5a11.85,11.85,0,0,1,3.71-3.84A8.64,8.64,0,0,1,363.44,34.08Z"/><path class="cls-1" d="M215,125.21,203.59,87.4h4.63L217.58,120l9.36-31.86h5L241,120l9.43-32.57h4.63l-11.55,37.81h-4.84l-9.2-31.78-9.67,31.78Z"/><path class="cls-1" d="M269.43,125.8c-4.08,0-7.28-1.29-9.63-3.88s-3.51-6.14-3.51-10.64q0-6.52,3.4-10.57a11.32,11.32,0,0,1,8.95-4.13,10.34,10.34,0,0,1,8.27,3.57q3,3.55,3,9.52c0,.2,0,.58,0,1.12s0,.94,0,1.18H260.68a11.07,11.07,0,0,0,2.47,7.45,8.22,8.22,0,0,0,6.43,2.68,19.06,19.06,0,0,0,8.93-2.36l.66,3.45A18.32,18.32,0,0,1,269.43,125.8Zm4.31-23.46a6.38,6.38,0,0,0-5.15-2.23,6.85,6.85,0,0,0-5.35,2.31,10.63,10.63,0,0,0-2.43,6.33h14.81A9.74,9.74,0,0,0,273.74,102.34Z"/><path class="cls-1" d="M299.09,96.58a11,11,0,0,1,6.44,1.89,11.57,11.57,0,0,1,4.07,5.14,19.21,19.21,0,0,1,1.35,7.44,20.2,20.2,0,0,1-1.34,7.64,11.47,11.47,0,0,1-4.07,5.21,11,11,0,0,1-6.5,1.9,10.83,10.83,0,0,1-5.09-1.2,11.22,11.22,0,0,1-3.84-3.27l-.43,3.88H286V86.27l4.27-.25V95.3c0,2.29,0,4.24-.1,5.88a10.92,10.92,0,0,1,8.9-4.6Zm-.44,3.55a7.4,7.4,0,0,0-6.22,2.8q-2.16,2.8-2.16,8.22,0,11.1,8.36,11.1a7.5,7.5,0,0,0,3.64-.86,6.29,6.29,0,0,0,2.48-2.4,12,12,0,0,0,1.35-3.49,19.23,19.23,0,0,0,.45-4.32,19,19,0,0,0-.75-5.63,8.12,8.12,0,0,0-2.57-3.91A6.94,6.94,0,0,0,298.65,100.13Z"/><path class="cls-1" d="M330.1,119a28.28,28.28,0,0,0,12.66,2.91q8.31,0,8.31-7.57a5.84,5.84,0,0,0-1.32-4c-.88-1-2.48-1.81-4.79-2.39l-7.52-1.9q-8.61-2.16-8.61-9.2,0-5.4,3.7-8t10.26-2.62a26.77,26.77,0,0,1,6.41.74,17.33,17.33,0,0,1,5,2l-1.28,3.6a19.82,19.82,0,0,0-4.54-1.68,22.11,22.11,0,0,0-5.71-.75q-9.26,0-9.25,6.42a4.54,4.54,0,0,0,1.41,3.49,9.51,9.51,0,0,0,4.26,2l7.19,1.74a14.23,14.23,0,0,1,7,3.51,9.41,9.41,0,0,1,2.37,6.87q0,5.77-3.54,8.71t-9.62,2.92a32,32,0,0,1-8.1-.93,21,21,0,0,1-5.61-2.21Z"/><path class="cls-1" d="M373.26,125.8c-4.08,0-7.28-1.29-9.63-3.88s-3.51-6.14-3.51-10.64q0-6.52,3.4-10.57a11.32,11.32,0,0,1,9-4.13,10.32,10.32,0,0,1,8.27,3.57q3,3.55,3.05,9.52c0,.2,0,.58,0,1.12s0,.94,0,1.18H364.51q.09,4.78,2.47,7.45a8.22,8.22,0,0,0,6.43,2.68,19.06,19.06,0,0,0,8.93-2.36l.66,3.45A18.3,18.3,0,0,1,373.26,125.8Zm4.31-23.46a6.36,6.36,0,0,0-5.15-2.23,6.85,6.85,0,0,0-5.35,2.31,10.63,10.63,0,0,0-2.43,6.33h14.81A9.74,9.74,0,0,0,377.57,102.34Z"/><path class="cls-1" d="M402.3,96.91a13.46,13.46,0,0,1,2.1.15l-.15,3.94a12.91,12.91,0,0,0-2.05-.2,7.47,7.47,0,0,0-5.82,2.49,8.9,8.9,0,0,0-2.23,6.17v15.75h-4.27q0-25.81,0-28h3.56l.41,5a11.82,11.82,0,0,1,3.71-3.83A8.62,8.62,0,0,1,402.3,96.91Z"/><path class="cls-1" d="M416,125.21l-10.87-28h4.58l6.18,16.67,2.56,7.1q.87-2.73,2.4-7,1.95-5.44,6-16.72h4.55l-10.79,28Z"/><path class="cls-1" d="M440.2,87V92h-4.3V87Zm0,10.21v28h-4.3v-28Z"/><path class="cls-1" d="M460.09,125.8q-6.19,0-9.68-4t-3.49-10.51a15.74,15.74,0,0,1,3.57-10.62,12.17,12.17,0,0,1,9.7-4.08,16.81,16.81,0,0,1,4.21.53,9.61,9.61,0,0,1,3.21,1.41l-1.18,3.33a13.07,13.07,0,0,0-6.32-1.62,7.79,7.79,0,0,0-6.43,3q-2.35,3-2.36,8.11a12.39,12.39,0,0,0,2.34,7.94,7.83,7.83,0,0,0,6.48,2.92,14.52,14.52,0,0,0,6.75-1.79l.53,3.4A12.17,12.17,0,0,1,460.09,125.8Z"/><path class="cls-1" d="M484.84,125.8q-6.12,0-9.63-3.88t-3.51-10.64q0-6.52,3.4-10.57A11.32,11.32,0,0,1,484,96.58a10.34,10.34,0,0,1,8.28,3.57q3,3.55,3.05,9.52c0,.2,0,.58,0,1.12s0,.94,0,1.18H476.09q.09,4.78,2.47,7.45A8.21,8.21,0,0,0,485,122.1a19,19,0,0,0,8.92-2.36l.67,3.45A18.3,18.3,0,0,1,484.84,125.8Zm4.31-23.46a6.38,6.38,0,0,0-5.16-2.23,6.84,6.84,0,0,0-5.34,2.31,10.63,10.63,0,0,0-2.43,6.33H491A9.74,9.74,0,0,0,489.15,102.34Z"/><path class="cls-1" d="M509.66,125.8a21.37,21.37,0,0,1-5.28-.61,13.2,13.2,0,0,1-3.92-1.59L501,120a17.71,17.71,0,0,0,8.39,2.27q6.24,0,6.42-4.39a3.55,3.55,0,0,0-1.33-2.94,19,19,0,0,0-5.22-2.41l-2.12-.74a11.82,11.82,0,0,1-5.25-3,7.07,7.07,0,0,1,1.05-10,11.08,11.08,0,0,1,7.25-2.17,20,20,0,0,1,8.66,1.84l-1.25,3.27a19.48,19.48,0,0,0-7.41-1.63,7.24,7.24,0,0,0-4.21,1.06,3.44,3.44,0,0,0-1.52,3,3,3,0,0,0,1.1,2.5,16.34,16.34,0,0,0,4.39,2c.57.2,1.27.44,2.13.71a14.28,14.28,0,0,1,6,3.26,7.11,7.11,0,0,1,1.77,5.08,7.34,7.34,0,0,1-2.79,6A11.72,11.72,0,0,1,509.66,125.8Z"/><rect class="cls-1" x="161.4" y="8.67" width="4.14" height="133.04"/></svg>